<?xml version="1.0" encoding="UTF-8" standalone="no"?>
<!-- Created with Inkscape (http://www.inkscape.org/) -->

<svg
   width="210mm"
   height="297mm"
   viewBox="0 0 210 297"
   version="1.1"
   id="svg1"
   inkscape:version="1.3.2 (091e20e, 2023-11-25, custom)"
   sodipodi:docname="confusion.svg"
   xmlns:inkscape="http://www.inkscape.org/namespaces/inkscape"
   xmlns:sodipodi="http://sodipodi.sourceforge.net/DTD/sodipodi-0.dtd"
   xmlns="http://www.w3.org/2000/svg"
   xmlns:svg="http://www.w3.org/2000/svg">
  <sodipodi:namedview
     id="namedview1"
     pagecolor="#ffffff"
     bordercolor="#000000"
     borderopacity="0.25"
     inkscape:showpageshadow="2"
     inkscape:pageopacity="0.0"
     inkscape:pagecheckerboard="0"
     inkscape:deskcolor="#d1d1d1"
     inkscape:document-units="mm"
     inkscape:zoom="0.51213161"
     inkscape:cx="394.42986"
     inkscape:cy="610.19471"
     inkscape:window-width="1920"
     inkscape:window-height="1009"
     inkscape:window-x="-8"
     inkscape:window-y="-8"
     inkscape:window-maximized="1"
     inkscape:current-layer="layer2" />
  <defs
     id="defs1">
    <rect
       x="613.12365"
       y="568.21332"
       width="117.15738"
       height="58.578692"
       id="rect24" />
    <rect
       x="323.08685"
       y="300.99544"
       width="89.746346"
       height="49.705669"
       id="rect7" />
    <rect
       x="477.7267"
       y="288.56902"
       width="74.558503"
       height="26.233547"
       id="rect6" />
    <rect
       x="462.53886"
       y="214.01052"
       width="84.223494"
       height="23.472121"
       id="rect5" />
    <rect
       x="414.21391"
       y="338.27469"
       width="73.17779"
       height="37.279252"
       id="rect4" />
    <rect
       x="296.8533"
       y="385.21893"
       width="45.56353"
       height="22.091408"
       id="rect3" />
    <rect
       x="392.1225"
       y="262.33547"
       width="45.56353"
       height="33.137112"
       id="rect2" />
    <rect
       x="183.63483"
       y="317.56399"
       width="85.604202"
       height="24.852835"
       id="rect1" />
  </defs>
  <g
     inkscape:label="Layer 1"
     inkscape:groupmode="layer"
     id="layer1">
    <g
       transform="matrix(0.28951391,0,0,0.57006243,-75.144067,-66.966066)"
       id="g9"
       style="fill:#d5f1e3;fill-opacity:1">
      <path
         d="m 779.90127,554.09987 c 0,5.53737 -4.81473,10.02686 -10.75325,10.02686 -5.93852,0 -10.75324,-4.48949 -10.75324,-10.02686 0,-5.53737 4.81472,-10.02687 10.75324,-10.02687 5.93852,0 10.75325,4.4895 10.75325,10.02687 z"
         fill="#156082"
         fill-rule="evenodd"
         id="path2"
         style="fill:#d5f1e3;fill-opacity:1;stroke:#000000;stroke-width:1.03547;stroke-opacity:1" />
      <path
         d="m 778.47615,532.63831 c 0,11.07573 -9.62838,20.05372 -21.50541,20.05372 -11.87812,0 -21.50649,-8.97799 -21.50649,-20.05372 0,-11.07475 9.62837,-20.05373 21.50649,-20.05373 11.87703,0 21.50541,8.97898 21.50541,20.05373 z"
         fill="#156082"
         fill-rule="evenodd"
         id="path3"
         style="fill:#d5f1e3;fill-opacity:1;stroke:#000000;stroke-width:1.03547;stroke-opacity:1" />
      <path
         d="m 331.50564,238.09468 c -8.31049,-42.02223 34.47943,-80.72084 95.57282,-86.4372 24.75561,-2.31573 49.92515,1.14688 71.48097,9.83389 22.84152,-29.61565 76.21741,-40.87137 119.21858,-25.14016 7.52019,2.7507 14.42058,6.2373 20.48885,10.35084 17.78982,-24.54922 61.1202,-34.5231 96.78347,-22.27648 9.86965,3.38861 18.48039,8.29106 25.16846,14.32838 28.67389,-23.21537 79.34109,-26.08305 113.16963,-6.40528 14.21791,8.27106 23.80017,19.67877 27.104,32.26735 46.98056,8.817 74.69579,42.21721 61.90406,74.60054 -1.07554,2.72269 -2.42558,5.38939 -4.03836,7.98309 37.67925,33.74318 28.45513,82.10569 -20.60252,108.02276 -15.26985,8.06709 -33.30738,13.29049 -52.36898,15.16528 -0.42356,36.30188 -43.58344,65.49458 -96.39958,65.20361 -17.64612,-0.097 -34.90836,-3.54859 -49.87797,-9.97087 -17.86381,40.69839 -80.17642,63.70279 -139.17771,51.37917 -24.72774,-5.16441 -46.0916,-16.08517 -60.44999,-30.90149 -60.41032,25.06616 -138.82063,11.58268 -175.13481,-30.11559 -0.45788,-0.52594 -0.90719,-1.05388 -1.34898,-1.58581 -39.5365,3.18263 -75.34883,-16.22417 -79.98876,-43.3471 -2.47386,-14.45735 4.46406,-28.92772 18.964,-39.55552 -34.2328,-13.86342 -45.73237,-44.29297 -25.68425,-67.96629 11.56499,-13.65745 31.8501,-22.68642 54.61549,-24.30924 z"
         stroke="#042433"
         stroke-width="2.07094"
         stroke-miterlimit="8"
         fill="none"
         fill-rule="evenodd"
         id="path5"
         style="fill:#d5f1e3;fill-opacity:1" />
      <path
         d="m 766.99372,493.45174 c 0,16.61312 -14.44309,30.08059 -32.25864,30.08059 -17.81664,0 -32.25973,-13.46747 -32.25973,-30.08059 0,-16.61211 14.44309,-30.07959 32.25973,-30.07959 17.81555,0 32.25864,13.46748 32.25864,30.07959 z"
         stroke="#042433"
         stroke-width="2.07094"
         stroke-miterlimit="8"
         fill="none"
         fill-rule="evenodd"
         id="path8"
         style="fill:#d5f1e3;fill-opacity:1" />
      <path
         d="m 344.61477,336.74851 c -14.6136,0.78691 -29.2272,-1.53683 -41.87631,-6.66026 m 78.8253,79.53699 c -5.87739,1.60982 -12.03788,2.6807 -18.32169,3.18665 m 176.19855,31.83138 c -4.42012,-4.56148 -8.12177,-9.43493 -11.03955,-14.53934 m 215.18817,-21.71555 c -0.64984,5.41039 -2.12749,10.75778 -4.40832,15.9532 m 92.05882,-114.52303 c 33.13581,11.09375 54.04716,34.28912 53.7512,59.62125 m 73.03048,-123.12405 c -5.36697,8.62703 -13.55844,16.27916 -23.93424,22.35747 M 900.59001,163.36215 c 0.91469,3.48361 1.33825,7.01921 1.26426,10.55881 M 747.73912,151.04655 c 3.11831,-4.87144 7.24782,-9.40693 12.26093,-13.46548 m -126.94146,19.88275 c 1.27286,-4.02554 3.26737,-7.9271 5.93852,-11.61368 m -140.5224,15.55724 c 7.80007,3.14264 15.01572,6.92621 21.48933,11.26672 m -184.70528,77.27624 c -1.70285,-3.87656 -2.95746,-7.84011 -3.75098,-11.85266"
         stroke="#042433"
         stroke-width="2.07094"
         stroke-miterlimit="8"
         fill="none"
         fill-rule="evenodd"
         id="path9"
         style="fill:#d5f1e3;fill-opacity:1" />
    </g>
    <g
       inkscape:groupmode="layer"
       id="layer2"
       inkscape:label="text">
      <text
         xml:space="preserve"
         transform="matrix(0.52389205,-0.42619575,0.28303654,1.3302731,-171.13551,-269.95007)"
         id="text1"
         style="white-space:pre;shape-inside:url(#rect1);display:inline;fill:#ffffff;fill-opacity:1;stroke:#000000;stroke-opacity:1"
         inkscape:transform-center-x="-2.5099049"
         inkscape:transform-center-y="8.814209"><tspan
           x="183.63477"
           y="328.51242"
           id="tspan8">Solar Power</tspan></text>
      <text
         xml:space="preserve"
         transform="matrix(1.1979871,-0.93171258,0.28490132,1.0147168,-465.67559,149.74538)"
         id="text2"
         style="white-space:pre;shape-inside:url(#rect2);display:inline;fill:#ffffff;fill-opacity:1;stroke:#000000;stroke-opacity:1"><tspan
           x="392.12305"
           y="273.2839"
           id="tspan9">EV</tspan></text>
      <text
         xml:space="preserve"
         transform="matrix(1.0724203,0.64824307,-0.25146534,0.75745715,-128.74471,-351.24513)"
         id="text3"
         style="white-space:pre;shape-inside:url(#rect3);display:inline;fill:#ffffff;fill-opacity:1;stroke:#000000;stroke-opacity:1"><tspan
           x="296.85352"
           y="396.16671"
           id="tspan10">VtoG</tspan></text>
      <text
         xml:space="preserve"
         transform="matrix(0.70599077,-0.57623486,0.377965,1.2827184,-302.56544,-78.957504)"
         id="text4"
         style="white-space:pre;shape-inside:url(#rect4);display:inline;fill:#ffffff;fill-opacity:1;stroke:#000000;stroke-opacity:1"
         inkscape:transform-center-x="-1.9992394"
         inkscape:transform-center-y="-6.6548172"><tspan
           x="414.21484"
           y="349.22335"
           id="tspan11">VtoH</tspan></text>
      <text
         xml:space="preserve"
         transform="matrix(0.52357952,0.21732142,-0.05248445,1.7724859,-197.15186,-381.73606)"
         id="text5"
         style="white-space:pre;shape-inside:url(#rect5);display:inline;fill:#ffffff;fill-opacity:1;stroke:#000000;stroke-opacity:1"
         inkscape:transform-center-x="-7.2328413"
         inkscape:transform-center-y="-8.2661044"><tspan
           x="462.53906"
           y="224.95773"
           id="tspan12">Smart Hiome</tspan></text>
      <text
         xml:space="preserve"
         transform="matrix(0.494877,0.23333237,-0.81323085,1.2220993,150.05851,-429.64238)"
         id="text6"
         style="white-space:pre;shape-inside:url(#rect6);display:inline;fill:#ffffff;fill-opacity:1;stroke:#000000;stroke-opacity:1"><tspan
           x="477.72656"
           y="299.51632"
           id="tspan13">Power Wall  </tspan></text>
      <text
         xml:space="preserve"
         transform="matrix(0.46669728,-0.36504042,0.44421227,1.5731318,-187.37557,-274.99186)"
         id="text7"
         style="white-space:pre;shape-inside:url(#rect7);display:inline;fill:#ffffff;fill-opacity:1;stroke:#000000;stroke-opacity:1"
         inkscape:transform-center-x="-7.9969874"
         inkscape:transform-center-y="-8.6512458"><tspan
           x="323.08594"
           y="311.94406"
           id="tspan14">Load Sheding</tspan></text>
    </g>
    <ellipse
       style="fill:#000000;fill-opacity:1;stroke:#000000;stroke-width:0.264583;stroke-opacity:1"
       id="path7"
       cx="159.93396"
       cy="264.45651"
       rx="10.95941"
       ry="10.046125" />
    <ellipse
       style="fill:#000000;fill-opacity:1;stroke:#000000;stroke-width:0.315521;stroke-opacity:1"
       id="path24"
       cx="160.15579"
       cy="285.95551"
       rx="32.522316"
       ry="10.048846" />
    <text
       xml:space="preserve"
       transform="matrix(1.2325953,-0.47845696,0.35730662,1.1258928,-782.81378,-107.16131)"
       id="text24"
       style="white-space:pre;shape-inside:url(#rect24);display:inline;fill:#000000;fill-opacity:1;stroke:#000000;stroke-opacity:1"><tspan
         x="613.12305"
         y="579.16085"
         id="tspan15">???</tspan></text>
  </g>
</svg>
